<svg width="40" height="40" viewBox="0 0 40 40" fill="none" xmlns="http://www.w3.org/2000/svg">
<circle cx="20" cy="20" r="20" fill="#1F3DA8"/>
<path d="M10.5769 14.523C10.5697 14.5625 10.5656 14.6025 10.5642 14.6426V15.4651C10.5653 15.804 10.7758 16.1071 11.0934 16.2261V17.4364C11.0948 17.8415 11.4134 18.1746 11.8181 18.1937V25.1854C11.4134 25.2047 11.0948 25.5377 11.0934 25.9428V27.1495C10.7752 27.2717 10.5648 27.577 10.5642 27.9177V28.7222C10.5642 28.8722 10.6861 28.9939 10.8361 28.9939H29.1644C29.3144 28.9939 29.4361 28.8722 29.4361 28.7222V27.9177C29.4355 27.5768 29.2252 27.2716 28.9071 27.1495V25.9357C28.9056 25.5305 28.5869 25.1975 28.1824 25.1783V18.1937C28.5869 18.1746 28.9056 17.8415 28.9071 17.4364V16.2261C29.2245 16.1071 29.435 15.804 29.4361 15.4651V14.648C29.4349 14.6079 29.4307 14.5679 29.4234 14.5284C29.56 14.5889 29.7198 14.5273 29.7803 14.3907C29.8409 14.2542 29.7793 14.0944 29.6428 14.0337L20.1252 9.03142C20.0458 8.98953 19.9509 8.98953 19.8715 9.03142L10.3541 14.0283C10.2213 14.0985 10.1704 14.2628 10.2403 14.3956C10.3043 14.5169 10.4486 14.5716 10.5769 14.523ZM11.6369 16.6971V16.2786H14.7713V16.6935L11.6369 16.6971ZM18.6159 18.1956V25.1854C18.2113 25.2047 17.8927 25.5377 17.8912 25.9428V27.0987H15.3111V25.9428C15.3097 25.5377 14.991 25.2047 14.5864 25.1854V18.1937C14.991 18.1746 15.3097 17.8415 15.3111 17.4364V16.2786H17.8875V17.4346C17.8882 17.8405 18.2071 18.1743 18.6124 18.1937L18.6159 18.1956ZM18.4348 16.6971V16.2786H21.5693V16.6935L18.4348 16.6971ZM25.4139 18.1956V25.1854C25.0093 25.2047 24.6905 25.5377 24.6891 25.9428V27.0987H22.1091V25.9428C22.1076 25.5377 21.7889 25.2047 21.3844 25.1854V18.1937C21.7889 18.1746 22.1076 17.8415 22.1091 17.4364V16.2786H24.6855V17.4346C24.686 17.8405 25.0049 18.1743 25.4102 18.1937L25.4139 18.1956ZM25.2327 16.6971V16.2786H28.3671V16.6935L25.2327 16.6971ZM28.3671 26.6839V27.0987H25.229V26.6839H28.3671ZM21.5693 26.6839V27.0987H18.4312V26.6839H21.5693ZM18.8841 17.6556H18.6486C18.5285 17.6556 18.4312 17.5583 18.4312 17.4382V17.2406H21.5656V17.4382C21.5656 17.5583 21.4683 17.6556 21.3482 17.6556H18.8841ZM20.8427 18.1991V25.1819H19.1559V18.1991H20.8427ZM18.8841 25.7254H21.3482C21.4683 25.7254 21.5656 25.8227 21.5656 25.9428V26.1404H18.4312V25.9428C18.4312 25.8227 18.5285 25.7254 18.6486 25.7254H18.8841ZM14.7677 26.6839V27.0987H11.6332V26.6839H14.7677ZM11.6332 17.4436V17.2406H14.7677V17.4382C14.7677 17.5583 14.6704 17.6556 14.5502 17.6556H11.8452C11.7265 17.6527 11.6322 17.555 11.6332 17.4364V17.4436ZM14.043 18.2046V25.1819H12.3579V18.1991L14.043 18.2046ZM11.6332 25.9483C11.6332 25.8281 11.7305 25.7308 11.8506 25.7308H14.5502C14.6704 25.7308 14.7677 25.8281 14.7677 25.9483V26.1458H11.6332V25.9483ZM28.8925 27.9286V28.4612H11.1042V27.9286C11.1042 27.7735 11.2299 27.6477 11.385 27.6477H28.6117C28.7646 27.6477 28.8896 27.7702 28.8925 27.9231V27.9286ZM28.3635 25.9483V26.1458H25.229V25.9483C25.229 25.8281 25.3263 25.7308 25.4464 25.7308H28.1516C28.2675 25.7337 28.3606 25.8269 28.3635 25.9428V25.9483ZM25.9538 25.1873V18.1991H27.6405V25.1819L25.9538 25.1873ZM28.3635 17.4436C28.3635 17.5638 28.2663 17.661 28.1462 17.661H25.4483C25.3282 17.661 25.2309 17.5638 25.2309 17.4436V17.2406H28.3653L28.3635 17.4436ZM19.9984 9.57496L28.0917 13.829H11.9051L19.9984 9.57496ZM11.1042 14.648C11.1042 14.498 11.2259 14.3763 11.3759 14.3763H28.6208C28.7708 14.3763 28.8925 14.498 28.8925 14.648V15.4706C28.8925 15.6206 28.7708 15.7423 28.6208 15.7423H11.3759C11.2259 15.7423 11.1042 15.6206 11.1042 15.4706V14.648Z" fill="white"/>
</svg>
