<svg width="38" height="38" viewBox="0 0 38 38" fill="none" xmlns="http://www.w3.org/2000/svg">
<circle cx="18.9998" cy="18.9998" r="18.9998" fill="#1F3DA8"/>
<path d="M20.6666 10.6666H14C13.558 10.6666 13.134 10.8422 12.8215 11.1548C12.5089 11.4673 12.3333 11.8913 12.3333 12.3333V25.6666C12.3333 26.1087 12.5089 26.5326 12.8215 26.8451C13.134 27.1577 13.558 27.3333 14 27.3333H24C24.442 27.3333 24.8659 27.1577 25.1785 26.8451C25.4911 26.5326 25.6666 26.1087 25.6666 25.6666V15.6666L20.6666 10.6666Z" stroke="white" stroke-width="1.5" stroke-linecap="round" stroke-linejoin="round"/>
<path d="M20.6667 10.6666V15.6666H25.6667" stroke="white" stroke-width="1.5" stroke-linecap="round" stroke-linejoin="round"/>
<path d="M22.3334 19.8334H15.6667" stroke="white" stroke-width="1.5" stroke-linecap="round" stroke-linejoin="round"/>
<path d="M22.3334 23.1666H15.6667" stroke="white" stroke-width="1.5" stroke-linecap="round" stroke-linejoin="round"/>
<path d="M17.3334 16.5H16.5H15.6667" stroke="white" stroke-width="1.5" stroke-linecap="round" stroke-linejoin="round"/>
</svg>
