<svg width="16" height="17" viewBox="0 0 16 17" fill="none" xmlns="http://www.w3.org/2000/svg">
<path d="M0.294449 5.23417C0.288632 5.26579 0.285354 5.29783 0.284297 5.32987V5.98808C0.285143 6.25934 0.453607 6.50183 0.707732 6.59711V7.5656C0.708895 7.88984 0.963866 8.15634 1.28768 8.17167V13.7668C0.963866 13.7822 0.708895 14.0487 0.707732 14.3728V15.3385C0.453079 15.4363 0.28472 15.6806 0.284297 15.9532V16.597C0.284297 16.7171 0.381801 16.8145 0.501831 16.8145H15.1689C15.289 16.8145 15.3864 16.7171 15.3864 16.597V15.9532C15.386 15.6805 15.2176 15.4362 14.963 15.3385V14.3671C14.9619 14.0429 14.7068 13.7764 14.3831 13.761V8.17167C14.7068 8.15634 14.9619 7.88984 14.963 7.5656V6.59711C15.2171 6.50183 15.3855 6.25934 15.3864 5.98808V5.33421C15.3854 5.30217 15.382 5.27012 15.3762 5.2385C15.4856 5.28694 15.6134 5.23766 15.6619 5.12831C15.7103 5.01907 15.661 4.89121 15.5518 4.84267L7.93543 0.839596C7.87187 0.806072 7.79594 0.806072 7.73238 0.839596L0.116149 4.83833C0.0098671 4.89449 -0.0308478 5.02594 0.0250956 5.13222C0.0762801 5.2293 0.191763 5.27308 0.294449 5.23417ZM1.14269 6.97402V6.6391H3.65095V6.97116L1.14269 6.97402ZM6.72762 8.17315V13.7668C6.40381 13.7822 6.14884 14.0487 6.14767 14.3728V15.2978H4.08295V14.3728C4.08179 14.0487 3.82682 13.7822 3.503 13.7668V8.17167C3.82682 8.15634 4.08179 7.88984 4.08295 7.5656V6.6391H6.14471V7.56423C6.14524 7.88899 6.40042 8.15613 6.72477 8.17167L6.72762 8.17315ZM6.58264 6.97402V6.6391H9.09099V6.97116L6.58264 6.97402ZM12.1677 8.17315V13.7668C11.8439 13.7822 11.5888 14.0487 11.5876 14.3728V15.2978H9.523V14.3728C9.52183 14.0487 9.26676 13.7822 8.94305 13.7668V8.17167C9.26676 8.15634 9.52183 7.88984 9.523 7.5656V6.6391H11.5848V7.56423C11.5852 7.88899 11.8404 8.15613 12.1647 8.17167L12.1677 8.17315ZM12.0227 6.97402V6.6391H14.5309V6.97116L12.0227 6.97402ZM14.5309 14.9659V15.2978H12.0197V14.9659H14.5309ZM9.09099 14.9659V15.2978H6.57978V14.9659H9.09099ZM6.9422 7.74105H6.75375C6.65762 7.74105 6.57978 7.66321 6.57978 7.56708V7.40898H9.08803V7.56708C9.08803 7.66321 9.0102 7.74105 8.91407 7.74105H6.9422ZM8.50956 8.17601V13.7639H7.15973V8.17601H8.50956ZM6.9422 14.1989H8.91407C9.0102 14.1989 9.08803 14.2767 9.08803 14.3728V14.5309H6.57978V14.3728C6.57978 14.2767 6.65762 14.1989 6.75375 14.1989H6.9422ZM3.64809 14.9659V15.2978H1.13973V14.9659H3.64809ZM1.13973 7.57142V7.40898H3.64809V7.56708C3.64809 7.66321 3.57026 7.74105 3.47402 7.74105H1.30936C1.2144 7.73872 1.13889 7.66057 1.13973 7.5656V7.57142ZM3.06814 8.18034V13.7639H1.71968V8.17601L3.06814 8.18034ZM1.13973 14.3773C1.13973 14.281 1.21757 14.2032 1.3137 14.2032H3.47402C3.57026 14.2032 3.64809 14.281 3.64809 14.3773V14.5353H1.13973V14.3773ZM14.9514 15.962V16.3882H0.716404V15.962C0.716404 15.8378 0.816975 15.7371 0.941129 15.7371H14.7267C14.849 15.7371 14.9491 15.8352 14.9514 15.9575V15.962ZM14.5281 14.3773V14.5353H12.0197V14.3773C12.0197 14.281 12.0976 14.2032 12.1937 14.2032H14.3585C14.4512 14.2055 14.5258 14.2801 14.5281 14.3728V14.3773ZM12.5997 13.7682V8.17601H13.9495V13.7639L12.5997 13.7682ZM14.5281 7.57142C14.5281 7.66755 14.4502 7.74538 14.3541 7.74538H12.1952C12.099 7.74538 12.0212 7.66755 12.0212 7.57142V7.40898H14.5295L14.5281 7.57142ZM7.83391 1.27456L14.3105 4.67886H1.35727L7.83391 1.27456ZM0.716404 5.33421C0.716404 5.21418 0.813803 5.11678 0.933832 5.11678H14.734C14.854 5.11678 14.9514 5.21418 14.9514 5.33421V5.99252C14.9514 6.11255 14.854 6.20995 14.734 6.20995H0.933832C0.813803 6.20995 0.716404 6.11255 0.716404 5.99252V5.33421Z" fill="url(#paint0_linear)"/>
<defs>
<linearGradient id="paint0_linear" x1="0" y1="0.814453" x2="20.4844" y2="5.38484" gradientUnits="userSpaceOnUse">
<stop stop-color="#1DA580"/>
<stop offset="1" stop-color="#1E2488"/>
</linearGradient>
</defs>
</svg>
