<svg width="116" height="44" viewBox="0 0 116 44" fill="none" xmlns="http://www.w3.org/2000/svg">
<rect width="44" height="44" rx="10" fill="#FF6E1F"/>
<circle cx="28.3722" cy="15.6278" r="5.43837" fill="white" fill-opacity="0.99"/>
<circle cx="15.1647" cy="15.6278" r="5.43837" fill="white" fill-opacity="0.99"/>
<circle cx="28.3722" cy="28.4468" r="5.43837" fill="white" fill-opacity="0.99"/>
<circle cx="15.1647" cy="28.4468" r="5.43837" fill="white" fill-opacity="0.99"/>
<path d="M54.2319 15.992H59.8479C64.9679 15.992 67.5279 18.656 67.5279 23.984C67.5279 29.328 64.9679 32 59.8479 32H54.2319V15.992ZM59.5839 29.768C61.3759 29.768 62.6959 29.304 63.5439 28.376C64.3919 27.448 64.8159 25.984 64.8159 23.984C64.8159 21.984 64.3919 20.52 63.5439 19.592C62.6959 18.664 61.3759 18.2 59.5839 18.2H56.8719V29.768H59.5839ZM70.5651 15.752H73.2531V18.032H70.5651V15.752ZM70.6371 20.024H73.1571L73.1811 32H70.6371V20.024ZM82.5114 19.688C83.8714 19.688 84.9914 19.952 85.8714 20.48C86.7674 21.008 87.2154 21.784 87.2154 22.808V32.36C87.2154 33.736 86.7674 34.856 85.8714 35.72C84.9754 36.584 83.5514 37.016 81.5994 37.016C80.1754 37.016 78.8794 36.8 77.7114 36.368V34.064C79.0394 34.56 80.2714 34.808 81.4074 34.808C82.6874 34.808 83.5594 34.576 84.0234 34.112C84.4874 33.664 84.7194 33.064 84.7194 32.312V31.496C84.2554 31.752 83.7434 31.96 83.1834 32.12C82.6394 32.28 82.1034 32.36 81.5754 32.36C79.8154 32.328 78.4714 31.792 77.5434 30.752C76.6314 29.712 76.1754 28.232 76.1754 26.312C76.1754 23.816 76.7514 22.088 77.9034 21.128C79.0554 20.168 80.5914 19.688 82.5114 19.688ZM78.7434 26.24C78.7434 27.488 79.0154 28.48 79.5594 29.216C80.1034 29.936 80.9114 30.296 81.9834 30.296C83.0234 30.296 83.9354 30.064 84.7194 29.6V23.288C84.7194 22.728 84.5034 22.344 84.0714 22.136C83.6554 21.928 83.0874 21.824 82.3674 21.824C81.0074 21.824 80.0634 22.216 79.5354 23C79.0074 23.784 78.7434 24.864 78.7434 26.24ZM90.6979 15.752H93.3859V18.032H90.6979V15.752ZM90.7699 20.024H93.2899L93.3139 32H90.7699V20.024ZM101.228 32.312C100.124 32.312 99.2603 32.016 98.6363 31.424C98.0123 30.832 97.7003 29.992 97.7003 28.904V22.04H95.7563V19.952H97.7003V16.592H100.292V19.952H103.22V22.04H100.292V28.4C100.292 28.992 100.396 29.424 100.604 29.696C100.812 29.952 101.18 30.08 101.708 30.08C101.964 30.08 102.228 30.048 102.5 29.984C102.788 29.904 103.028 29.808 103.22 29.696V31.928C102.66 32.184 101.996 32.312 101.228 32.312ZM114.591 22.016L108.471 29.888H114.591V32H105.447V29.888L111.807 21.944H105.591V19.952H114.591V22.016Z" fill="white"/>
</svg>
