<svg width="38" height="38" viewBox="0 0 38 38" fill="none" xmlns="http://www.w3.org/2000/svg">
<circle cx="18.9998" cy="18.9998" r="18.9998" fill="#1F3DA8"/>
<path d="M24.25 18.25H13.75C12.9216 18.25 12.25 18.9216 12.25 19.75V25C12.25 25.8284 12.9216 26.5 13.75 26.5H24.25C25.0784 26.5 25.75 25.8284 25.75 25V19.75C25.75 18.9216 25.0784 18.25 24.25 18.25Z" stroke="white" stroke-width="1.5" stroke-linecap="round" stroke-linejoin="round"/>
<path d="M15.25 18.25V15.25C15.25 14.2554 15.6451 13.3016 16.3483 12.5983C17.0516 11.8951 18.0054 11.5 19 11.5C19.9946 11.5 20.9484 11.8951 21.6517 12.5983C22.3549 13.3016 22.75 14.2554 22.75 15.25V18.25" stroke="white" stroke-width="1.5" stroke-linecap="round" stroke-linejoin="round"/>
</svg>
