<svg width="18" height="18" viewBox="0 0 18 18" fill="none" xmlns="http://www.w3.org/2000/svg">
<path d="M2.25 4.5H3.75H15.75" stroke="#EB5757" stroke-width="1.5" stroke-linecap="round" stroke-linejoin="round"/>
<path d="M6 4.49976V2.99976C6 2.60193 6.15804 2.2204 6.43934 1.9391C6.72064 1.65779 7.10218 1.49976 7.5 1.49976H10.5C10.8978 1.49976 11.2794 1.65779 11.5607 1.9391C11.842 2.2204 12 2.60193 12 2.99976V4.49976M14.25 4.49976V14.9998C14.25 15.3976 14.092 15.7791 13.8107 16.0604C13.5294 16.3417 13.1478 16.4998 12.75 16.4998H5.25C4.85218 16.4998 4.47064 16.3417 4.18934 16.0604C3.90804 15.7791 3.75 15.3976 3.75 14.9998V4.49976H14.25Z" stroke="#EB5757" stroke-width="1.5" stroke-linecap="round" stroke-linejoin="round"/>
<path d="M7.5 8.24976V12.7498" stroke="#EB5757" stroke-width="1.5" stroke-linecap="round" stroke-linejoin="round"/>
<path d="M10.5 8.24976V12.7498" stroke="#EB5757" stroke-width="1.5" stroke-linecap="round" stroke-linejoin="round"/>
</svg>
