<svg width="22" height="8" viewBox="0 0 22 8" fill="none" xmlns="http://www.w3.org/2000/svg">
<g clip-path="url(#clip0)">
<path d="M9.53325 7.0169H7.7511L8.86578 0.124512H10.6478L9.53325 7.0169Z" fill="#00579F"/>
<path d="M15.9937 0.292948C15.6422 0.15349 15.0847 -0.000488281 14.3953 -0.000488281C12.6354 -0.000488281 11.396 0.938001 11.3884 2.27976C11.3738 3.2697 12.2757 3.81954 12.9503 4.14962C13.6398 4.48691 13.8742 4.70706 13.8742 5.00771C13.8672 5.46945 13.3171 5.68229 12.804 5.68229C12.0924 5.68229 11.7112 5.57256 11.1318 5.31567L10.8972 5.20554L10.6478 6.75273C11.0657 6.94316 11.8358 7.11215 12.6354 7.11955C14.5053 7.11955 15.7227 6.19558 15.7371 4.76573C15.7443 3.98112 15.268 3.37992 14.2412 2.88865C13.6179 2.57329 13.2362 2.36064 13.2362 2.03797C13.2435 1.74463 13.559 1.44418 14.2627 1.44418C14.842 1.42946 15.2677 1.56873 15.5902 1.70809L15.7514 1.78128L15.9937 0.292948Z" fill="#00579F"/>
<path d="M18.3624 4.57517C18.5092 4.17921 19.0739 2.64674 19.0739 2.64674C19.0665 2.66145 19.2204 2.24347 19.3084 1.98687L19.4329 2.58076C19.4329 2.58076 19.7704 4.23057 19.8437 4.57517C19.5652 4.57517 18.7144 4.57517 18.3624 4.57517ZM20.5622 0.124512H19.1837C18.7586 0.124512 18.4357 0.249059 18.2523 0.696376L15.6051 7.0168H17.4751C17.4751 7.0168 17.7829 6.16612 17.8491 5.9829C18.0542 5.9829 19.8733 5.9829 20.1372 5.9829C20.1884 6.22488 20.3499 7.0168 20.3499 7.0168H22L20.5622 0.124512Z" fill="#00579F"/>
<path d="M6.26265 0.124512L4.51734 4.82446L4.32662 3.87126C4.00395 2.77138 2.99198 1.57639 1.86267 0.982211L3.46132 7.00959H5.3459L8.14713 0.124512H6.26265Z" fill="#00579F"/>
<path d="M2.89665 0.124512H0.0293337L0 0.263774C2.23668 0.835736 3.71799 2.21443 4.3266 3.87155L3.70328 0.70388C3.60066 0.263677 3.28529 0.139032 2.89665 0.124512Z" fill="#FAA61A"/>
</g>
<defs>
<clipPath id="clip0">
<rect width="22" height="7.12004" fill="white"/>
</clipPath>
</defs>
</svg>
