<svg width="35" height="35" viewBox="0 0 35 35" fill="none" xmlns="http://www.w3.org/2000/svg">
<circle cx="17.5" cy="17.5" r="17.5" fill="#FAB613" fill-opacity="0.29"/>
<g clip-path="url(#clip0)">
<path d="M25.2702 16.5222H24.8539V14.0207C24.8539 12.9978 24.0212 12.1688 23.0019 12.1688H22.6179L22.6215 11.2392C22.6215 10.5501 22.0616 9.99023 21.3725 9.99023H10.2682C9.43909 9.99023 8.76077 10.6578 8.75 11.4869C8.75 11.494 8.75 11.5012 8.75 11.5084V23.7613C8.75 24.4503 9.30989 25.0102 9.99897 25.0102H23.0055C24.0284 25.0102 24.8575 24.1776 24.8575 23.1583V20.6532H25.2738C25.8121 20.6532 26.25 20.2153 26.25 19.677V17.4984C26.2464 16.9601 25.8086 16.5222 25.2702 16.5222ZM10.2682 10.8516H21.3725C21.5843 10.8516 21.7602 11.0239 21.7602 11.2356L21.7566 12.1688H10.2682C9.90566 12.1688 9.61136 11.8745 9.61136 11.512C9.61136 11.1495 9.90566 10.8516 10.2682 10.8516ZM23.9925 23.1547C23.9925 23.7002 23.5475 24.1453 23.0019 24.1453H9.99539C9.78363 24.1453 9.60777 23.973 9.60777 23.7577V12.8794C9.80876 12.9763 10.0313 13.0301 10.2682 13.0301H23.0019C23.5475 13.0301 23.9925 13.4752 23.9925 14.0207V16.5222H21.0531C20.5148 16.5222 20.0769 16.9601 20.0769 17.4984V19.677C20.0769 20.2153 20.5148 20.6532 21.0531 20.6532H23.9925V23.1547ZM25.385 19.677C25.385 19.7416 25.3348 19.7918 25.2702 19.7918H21.0567C20.9921 19.7918 20.9419 19.7416 20.9419 19.677V17.4984C20.9419 17.4374 20.9921 17.3836 21.0567 17.3836H25.2702C25.3312 17.3836 25.385 17.4338 25.385 17.4984V19.677Z" fill="#DFA007"/>
</g>
<defs>
<clipPath id="clip0">
<rect width="17.5" height="17.5" fill="white" transform="translate(8.75 8.75)"/>
</clipPath>
</defs>
</svg>
