<svg width="51" height="50" viewBox="0 0 51 50" fill="none" xmlns="http://www.w3.org/2000/svg">
<path fill-rule="evenodd" clip-rule="evenodd" d="M30.6748 0C30.9775 0 31.2549 0.161711 31.4063 0.432835L49.9842 33.6874C50.0549 33.8178 50.0952 33.969 50.0952 34.1202C50.0952 34.5999 49.7169 34.9909 49.2528 34.9909H33.9183C33.6156 34.9961 33.3382 34.8293 33.1869 34.5581L19.6582 10.3341C19.5826 10.2038 19.4766 10.0943 19.3505 10.0161C18.9469 9.77622 18.4325 9.91701 18.2005 10.3341L7.67814 29.1721C7.60752 29.3025 7.56716 29.4537 7.56716 29.6049C7.56716 30.0846 7.94548 30.4756 8.40954 30.4756C8.40954 30.4756 23.4121 30.4948 23.7413 30.4974C23.7466 30.4975 23.7521 30.4979 23.7575 30.4988L24.5394 30.4993C24.8417 30.4994 25.1156 30.6674 25.2669 30.939L26.7533 33.6917C26.9855 34.108 26.8479 34.6431 26.447 34.8831C26.3207 34.9587 26.1741 34.9981 26.0299 35L13.8199 34.9961H0.843178C0.6969 34.9961 0.550613 34.9544 0.424508 34.8814C0.0209708 34.6416 -0.120268 34.1097 0.111762 33.6926L18.2005 1.30351C18.2761 1.17318 18.382 1.06367 18.5081 0.985453C18.9117 0.745615 19.4261 0.886408 19.6582 1.30351L35.7191 30.0481C35.8654 30.314 36.1428 30.4808 36.4454 30.4808H41.6915C41.8378 30.4808 41.984 30.4443 42.1102 30.3661C42.5137 30.1263 42.6549 29.5945 42.4229 29.1773L26.9724 1.30351C26.9017 1.17318 26.8614 1.02202 26.8614 0.870764C26.8614 0.391089 27.2397 9.09509e-05 27.7038 0H30.6748Z" fill="white"/>
<path fill-rule="evenodd" clip-rule="evenodd" d="M42.7415 42.8V50H44.8009V42.8H46.7904V40.6667H40.7402V42.8H42.7415Z" fill="white"/>
<path fill-rule="evenodd" clip-rule="evenodd" d="M32.3163 46.782H30.4582L31.3757 44.3334L32.3163 46.782ZM33.4602 49.9821H35.4924V49.6361L31.8228 40.5467H30.9286L27.2705 49.6361V49.9821H29.3028L29.7789 48.811H32.9841L33.4602 49.9821Z" fill="white"/>
<path fill-rule="evenodd" clip-rule="evenodd" d="M19.0836 40.6667H16.9893V50H22.0388V47.8533H19.0836V40.6667Z" fill="white"/>
<path fill-rule="evenodd" clip-rule="evenodd" d="M8.56514 46.782H6.70708L7.6245 44.3334L8.56514 46.782ZM9.70921 49.9821H11.7415V49.6361L8.07179 40.5467H7.1776L3.51953 49.6361V49.9821H5.55179L6.02792 48.811H9.23308L9.70921 49.9821Z" fill="white"/>
</svg>
